<svg id="OnWhite" xmlns="http://www.w3.org/2000/svg" xmlns:xlink="http://www.w3.org/1999/xlink" viewBox="0 0 905.26 145.75"><defs><style>.cls-1{fill:#d9d9d9;}.cls-2{fill:#c02d28;}.cls-3{opacity:0.4;}.cls-4{fill:url(#linear-gradient);}.cls-5{opacity:0.41;fill:url(#linear-gradient-2);}</style><linearGradient id="linear-gradient" x1="466.12" y1="81.31" x2="522.58" y2="81.31" gradientUnits="userSpaceOnUse"><stop offset="0.67" stop-opacity="0"/><stop offset="1"/></linearGradient><linearGradient id="linear-gradient-2" x1="565.9" y1="78.92" x2="595.86" y2="27.03" gradientUnits="userSpaceOnUse"><stop offset="0.4" stop-opacity="0"/><stop offset="1" stop-color="#3d3d3d"/></linearGradient></defs><title>frontendmasters_logo</title><path class="cls-1" d="M42.44,49.74h-37V82.4H33.24V87H5.41v40.94H0V45.14H42.44Z"/><path class="cls-1" d="M52.44,127.94H47V85.85L44.85,66.42H50l2.07,17.25c4-8.4,10.35-17.83,20.82-17.83C83,65.84,85.68,76,85.68,84.24H80.27c-.11-5.63-.46-13.8-7.82-13.8-6.21,0-20,9.66-20,32.78Z"/><path class="cls-1" d="M92.34,97.47c0-23.69,12.19-31.63,23.23-31.63,10.12,0,23.35,6.79,23.35,31.63s-13.11,31.74-23.35,31.74S92.34,122.31,92.34,97.47Zm41.17,0c0-11.85-3-27-17.94-27s-17.83,15.18-17.83,27,3,27.14,17.83,27.14S133.51,109.31,133.51,97.47Z"/><path class="cls-1" d="M153.87,127.94h-5.41V97.47c0-10.35-.34-20.7-2.42-31.05h5.06l2.19,17.48h.23c2.3-9.09,12-18.06,21.62-18.06,11,0,14.15,9.54,14.15,18.75v43.36h-5.41V87.12c0-7,0-16.68-9.43-16.68-8.74,0-20.59,8.74-20.59,32.43Z"/><path class="cls-1" d="M238.74,71.71H216.43v41.52c0,5.87,2.19,11.39,9.66,11.39,6.79,0,11.5-5.06,14.15-10.81l5.17,1.26c-3.79,7.82-10.47,14.15-19.55,14.15C218,129.21,211,125.41,211,110V71.71H197.34v-4.6H211V47.56h5.41V67.11h22.31Z"/><path class="cls-1" d="M297,123.69c-7,3.1-13.92,5.52-21.74,5.52-17.83,0-24.38-16-24.38-31.4s6.79-32,24.73-32c10.24,0,22.31,7.36,22.31,32.55H256.33c1,21.39,9.89,26.22,19.21,26.22,6.9,0,13.46-2.53,19.21-6Zm-4.49-29.9c.58-10.47-5.63-23.35-17.6-23.35s-19,12.65-18.63,23.35Z"/><path class="cls-1" d="M312.56,127.94h-5.41V97.47c0-10.35-.35-20.7-2.42-31.05h5.06L312,83.9h.23c2.3-9.09,12-18.06,21.62-18.06,11,0,14.15,9.54,14.15,18.75v43.36h-5.41V87.12c0-7,0-16.68-9.43-16.68-8.74,0-20.59,8.74-20.59,32.43Z"/><path class="cls-1" d="M401.57,106.55c0,7.47.58,14.83,2.76,22l-5.06.69-2.18-10a17.67,17.67,0,0,1-16.22,10c-10.24,0-23.58-8.39-23.58-32.09,0-24.38,15.53-31.28,23.92-31.28a24.07,24.07,0,0,1,15,5.17V42.61h5.41Zm-5.41-30.13c-3.79-3.33-8.51-6-13.57-6-6.9,0-19.9,4.72-19.9,27,0,21,11.38,27.14,18.29,27.14,7.71,0,12.65-5.64,15.18-12.19Z"/><path class="cls-2" d="M684.14,94.33q.12.63.19,1.26t.06,1.26a12.84,12.84,0,0,1-3,8.19,111.18,111.18,0,0,1-9.2,10.77,83.58,83.58,0,0,1-8.06,7.31,40.42,40.42,0,0,1-6.43,4.22,10.74,10.74,0,0,1-4.41,1.39,12.06,12.06,0,0,1-5.73-1.51,9.53,9.53,0,0,1-4.22-4.41,14,14,0,0,1,.38-3.15,31.75,31.75,0,0,1,1.26-4q.88-2.33,2.46-5.67t4.09-8.38q-2,0-2.65,1-5.92,7.94-10.14,13t-7.25,8a24.12,24.12,0,0,1-5,4,7.77,7.77,0,0,1-3.53,1.07,12.92,12.92,0,0,1-9.39-5.48,20.13,20.13,0,0,1-3.34-11.91,46.35,46.35,0,0,1,3.46-18A53,53,0,0,1,622.4,78.9,42.46,42.46,0,0,1,634,69.32a24.93,24.93,0,0,1,12-3.46,16.93,16.93,0,0,1,7.5,1.51,22.47,22.47,0,0,1,6.49,5.29,40,40,0,0,1,8.38-4.6,17.43,17.43,0,0,1,5.35-1.32,4.3,4.3,0,0,1,3.78,2.14q-.63,2.4-1.76,6t-2.46,7.56q-1.32,4-2.71,8T668,98q-1.13,3.53-2,6.17a23.58,23.58,0,0,0-.95,3.78q0,1.26,1.64,1.26a4.9,4.9,0,0,0,1.76-.63,21.67,21.67,0,0,0,3.4-2.33q2.14-1.7,5.17-4.6T684.14,94.33ZM655,80.6q-3.53-3.27-6.68-3.28-2.77,0-6.17,2.9a35.69,35.69,0,0,0-6.43,7.43,48.59,48.59,0,0,0-5,9.89,29.1,29.1,0,0,0-2,10.27,4.25,4.25,0,0,0,.76,2.71,2.33,2.33,0,0,0,1.89.94q1.13,0,3.84-2.65a71.77,71.77,0,0,0,6.11-7q3.4-4.35,7.06-9.89A129,129,0,0,0,655,80.6Z"/><path class="cls-2" d="M692.58,80.6a24,24,0,0,1,2.27-6.87,23.58,23.58,0,0,1,3.84-5.54,17.68,17.68,0,0,1,4.79-3.65,11.36,11.36,0,0,1,5.23-1.32,6.55,6.55,0,0,1,4.54,1.7,8,8,0,0,1,2.39,4.85,17.46,17.46,0,0,1-2.39,3.53q-1.51,1.77-3.28,3.53a19,19,0,0,0,1.64,5.67q1.38,3.15,2.9,6.74a76.34,76.34,0,0,1,2.71,7.56,28.44,28.44,0,0,1,1.2,8.25,15.38,15.38,0,0,1-2.77,8.51,33.2,33.2,0,0,1-7,7.62,37.47,37.47,0,0,1-9.26,5.48,25.13,25.13,0,0,1-9.58,2.08,28.68,28.68,0,0,1-8.38-1.13,24,24,0,0,1-6.36-2.9,13.89,13.89,0,0,1-4.1-4,8.38,8.38,0,0,1-1.45-4.54,18.64,18.64,0,0,1,.95-6,21.28,21.28,0,0,1,3.21-5.8q1-1.26,3.28-3.84t5-5.86q2.71-3.27,5.61-6.93A80.51,80.51,0,0,0,692.58,80.6ZM695,91.31q-1.26,1.77-3.21,4t-4.22,4.73q-2.27,2.46-4.72,5t-4.6,4.79a23.62,23.62,0,0,0,6.68,6,14.13,14.13,0,0,0,7.18,2.14,7.14,7.14,0,0,0,5.23-2.2q2.2-2.2,2.21-6.62a22.13,22.13,0,0,0-.5-4.54,46.49,46.49,0,0,0-1.26-4.72q-.76-2.33-1.51-4.54T695,91.31Z"/><path class="cls-2" d="M767.29,94.59q.12.63.19,1.26c0,.42.06.84.06,1.26a12.2,12.2,0,0,1-3,8.19,92.33,92.33,0,0,1-10.08,11.59,67.9,67.9,0,0,1-8.76,7.18,30.49,30.49,0,0,1-7,3.65,16.4,16.4,0,0,1-4.91,1,14,14,0,0,1-13.23-9.32l11.47-37L729,83a14.73,14.73,0,0,1-.76-4.41A12.92,12.92,0,0,1,729.68,73a8.38,8.38,0,0,1,3.09-3.53l3.4-.38,5.29-16.51a25.36,25.36,0,0,1,6.17-.76,15.1,15.1,0,0,1,7.06,1.51,6.33,6.33,0,0,1,3.53,4l-3,9.83,12-1.26a15.34,15.34,0,0,1-1.32,5.29,18.76,18.76,0,0,1-3.21,5l-11,2.39-8.32,28.1q0,4.29,2.65,4.28,2,0,7.18-3.53T767.29,94.59Z"/><path class="cls-2" d="M820.84,92.95a14.17,14.17,0,0,1,.25,2.77,16.78,16.78,0,0,1-1.07,4.73,18,18,0,0,1-2.33,4.47q-8.82,11.85-17.89,17.83a33.46,33.46,0,0,1-18.65,6q-10.33,0-15.5-5.29t-5.17-14.11a31.07,31.07,0,0,1,.76-6.61A55.19,55.19,0,0,1,763,96.35a52.6,52.6,0,0,1,6.3-12.47,48.1,48.1,0,0,1,8.63-9.64,39.07,39.07,0,0,1,10-6.17,26.6,26.6,0,0,1,10.39-2.2q7.81,0,11.91,3.34a11.3,11.3,0,0,1,4.09,9.26,12.68,12.68,0,0,1-.76,4.1,15.35,15.35,0,0,1-2,4,18.78,18.78,0,0,1-3.34,3,69,69,0,0,1-6.68,4.35q-4.1,2.4-9.58,5A116.77,116.77,0,0,1,780,103.78a12,12,0,0,0-.19,1.51c0,.59-.06,1.22-.06,1.89a7.71,7.71,0,0,0,2.14,5.61q2.14,2.21,6.93,2.21,5.42,0,13.48-5T820.84,92.95ZM794,75.94A4.14,4.14,0,0,0,791.86,77a15.35,15.35,0,0,0-3,3.46,47,47,0,0,0-3.4,6,59.31,59.31,0,0,0-3.28,8.69,86,86,0,0,0,9.83-5,25.57,25.57,0,0,0,5-3.78A8.24,8.24,0,0,0,798.79,81Q798.79,75.94,794,75.94Z"/><path class="cls-2" d="M871,94.33a2.82,2.82,0,0,1,.25,1.26v1.26a11.91,11.91,0,0,1-.82,4.28,14.88,14.88,0,0,1-2.21,3.91,113.09,113.09,0,0,1-9.51,11.21,77.75,77.75,0,0,1-8.13,7.31,31.34,31.34,0,0,1-6.49,4,12.58,12.58,0,0,1-4.6,1.2,12.11,12.11,0,0,1-6.8-2.08,16.63,16.63,0,0,1-5.42-6.49,26.28,26.28,0,0,1,2.08-7.25,80.13,80.13,0,0,1,4.16-8.25q2.46-4.28,5.17-8.5t5-8a2.44,2.44,0,0,0-.5-1.45,4.78,4.78,0,0,0-2-1.32q-1.64-.63-3.53-1.26t-3-1.13q-3,4.79-6.93,10t-8.13,10.21q-4.22,5-8.5,9.45a99.26,99.26,0,0,1-8.06,7.62,5,5,0,0,1-1.45-2.14,8.36,8.36,0,0,1-.44-2.77,10.53,10.53,0,0,1,.5-3.21,8.83,8.83,0,0,1,1.51-2.83,51.35,51.35,0,0,0,7.31-6.87,98,98,0,0,0,7-8.76q3.21-4.54,5.73-8.63t3.65-6.36a12.25,12.25,0,0,1-2.14-7.06,16.11,16.11,0,0,1,3.09-9.26,10.6,10.6,0,0,1,7.75-4.6,11,11,0,0,0,.76,3.34A7.41,7.41,0,0,0,839,64.22a33.84,33.84,0,0,0,6.17,3.21q4,1.7,10.84,3.84A21.68,21.68,0,0,1,862,74q2.08,1.51,2.08,5.17a41.33,41.33,0,0,1-3.28,7.43Q858.52,90.81,856,95t-4.66,8a26.72,26.72,0,0,0-2.77,6.49,1.67,1.67,0,0,0,.63,1.39,2.16,2.16,0,0,0,1.39.5,6.58,6.58,0,0,0,2.65-1.13,50.46,50.46,0,0,0,4.66-3.28,76.29,76.29,0,0,0,6.11-5.35Q867.33,98.37,871,94.33Z"/><path class="cls-2" d="M879.43,80.6a24,24,0,0,1,2.27-6.87,23.58,23.58,0,0,1,3.84-5.54,17.68,17.68,0,0,1,4.79-3.65,11.36,11.36,0,0,1,5.23-1.32,6.55,6.55,0,0,1,4.54,1.7,8,8,0,0,1,2.39,4.85,17.46,17.46,0,0,1-2.39,3.53q-1.51,1.77-3.28,3.53a19,19,0,0,0,1.64,5.67q1.38,3.15,2.9,6.74a76.34,76.34,0,0,1,2.71,7.56,28.44,28.44,0,0,1,1.2,8.25,15.38,15.38,0,0,1-2.77,8.51,33.2,33.2,0,0,1-7,7.62,37.47,37.47,0,0,1-9.26,5.48,25.13,25.13,0,0,1-9.58,2.08,28.68,28.68,0,0,1-8.38-1.13,24,24,0,0,1-6.36-2.9,13.89,13.89,0,0,1-4.1-4,8.38,8.38,0,0,1-1.45-4.54,18.64,18.64,0,0,1,.95-6,21.28,21.28,0,0,1,3.21-5.8q1-1.26,3.28-3.84t5-5.86q2.71-3.27,5.61-6.93A80.51,80.51,0,0,0,879.43,80.6Zm2.39,10.71q-1.26,1.77-3.21,4t-4.22,4.73q-2.27,2.46-4.72,5t-4.6,4.79a23.62,23.62,0,0,0,6.68,6,14.13,14.13,0,0,0,7.18,2.14,7.14,7.14,0,0,0,5.23-2.2q2.2-2.2,2.21-6.62a22.13,22.13,0,0,0-.5-4.54,46.49,46.49,0,0,0-1.26-4.72q-.76-2.33-1.51-4.54T881.83,91.31Z"/><path class="cls-2" d="M623.17,22.41Q618.85,33.7,615,46.65T608.4,72.13q-2.82,12.54-4.57,23.9a130.91,130.91,0,0,0-1.74,19.34A21.59,21.59,0,0,0,603,122a7.92,7.92,0,0,0,2.74,4.15,16.13,16.13,0,0,1-7.06,5.23,23.53,23.53,0,0,1-8.71,1.74,15.46,15.46,0,0,1-10.62-3.82Q575,125.5,575,116.37a70.2,70.2,0,0,1,.83-9.21q.83-5.89,2.41-13.36T582,77.52q2.16-8.8,4.65-17.76a4.24,4.24,0,0,0-1.41.17,2.43,2.43,0,0,0-.91.83l-40.67,62.08a40.8,40.8,0,0,1-12.95,2.49,14.7,14.7,0,0,1-7-1.58,9.15,9.15,0,0,1-4.32-5.39q.5-4.48.91-10t.83-11.45q.41-5.89.75-11.87t.5-11.62q.16-3.32.17-6.14V61.42a4.28,4.28,0,0,0-.41-1.66,1.32,1.32,0,0,0-1.08-.33q-13.45,24.24-23.32,40.75a307.26,307.26,0,0,1-17.51,26.64q-7.64,10.12-13.78,14.53t-12,4.4a14.44,14.44,0,0,1-11-4.73q-4.4-4.73-6.06-12.87a6.42,6.42,0,0,0,2.32.33q7,0,13.7-5.89a94.86,94.86,0,0,0,13.69-15.44q7-9.54,14.36-21.75t15.69-24.82a49.46,49.46,0,0,1,7.55-9.38,11.62,11.62,0,0,1,8.05-3.07,24.44,24.44,0,0,1,5.81.83,1.87,1.87,0,0,0,2.16-1.83q-1.16-13.45-8.13-20.58t-19.75-7.14a40.83,40.83,0,0,0-19.59,4.9,53.34,53.34,0,0,0-15.85,12.95,64,64,0,0,0-14.52,40.59q0,7.64,4.65,10a20.59,20.59,0,0,1-6.81,6,17.5,17.5,0,0,1-8.47,2.16,15.69,15.69,0,0,1-11.21-4.32q-4.57-4.31-4.56-13.78a61.76,61.76,0,0,1,3.4-20.42,79.43,79.43,0,0,1,9.3-18.51,85.56,85.56,0,0,1,13.86-15.85,96.91,96.91,0,0,1,17.1-12.28,87.75,87.75,0,0,1,19-8A71.34,71.34,0,0,1,498.84,0q24.4,0,36.69,15.11t12.28,47.14q0,2.33-.08,6.14t-.25,7.8q-.17,4-.33,7.39t-.33,4.9a4.18,4.18,0,0,0,1.41-.17,1.6,1.6,0,0,0,.75-.83l43.66-63.74q2-3.32,3.65-3.32c.33,0,.8,0,1.41-.08a6.49,6.49,0,0,0,1.41-.25q2.49-2.82,7.64-2.82a28.08,28.08,0,0,1,7.47,1.16A38.71,38.71,0,0,1,623.17,22.41Z"/><g class="cls-3"><path class="cls-4" d="M522.57,61.42a4.28,4.28,0,0,0-.41-1.66,1.32,1.32,0,0,0-1.08-.33q-13.45,24.24-23.32,40.75a307.26,307.26,0,0,1-17.51,26.64c-5.09,6.75-17.76-13.31-13.11-19.67s9.43-13.61,14.36-21.75S491.64,69,497.18,60.59a49.46,49.46,0,0,1,7.55-9.38,11.62,11.62,0,0,1,8.05-3.07,24.44,24.44,0,0,1,5.81.83,1.87,1.87,0,0,0,2.16-1.83,43.94,43.94,0,0,0-1.94-10c-.47-1.44-.86-2.31-1-2.72,3.25,6.62,4.5,15.63,4.76,21.58C522.61,57.57,522.57,61.42,522.57,61.42Z"/></g><path class="cls-5" d="M599.1,20.09c-1.54,2.7-9.15,29.8-12.45,39.67A3.31,3.31,0,0,0,585,60c-5,3.5-18.94,6.43-21.14,5.62C569,58.35,587.62,31,592.63,23.74c.32-.52,1.83-3.29,3.65-3.32.12,0,.43,0,1.19-.06A7.49,7.49,0,0,0,599.1,20.09Z"/></svg>